<svg width="31" height="31" viewBox="0 0 31 31" fill="none" xmlns="http://www.w3.org/2000/svg">
<rect x="0.75" y="0.75" width="29.5" height="29.5" rx="14.75" stroke="#B4B0A5" stroke-width="0.5"/>
<path d="M12.6397 19.1387C12.3468 19.4316 11.8719 19.4316 11.579 19.1387C11.2862 18.8458 11.2862 18.371 11.579 18.0781L12.6397 19.1387ZM18.6094 11.3584C19.0236 11.3584 19.3594 11.6942 19.3594 12.1084L19.3594 18.8584C19.3594 19.2726 19.0236 19.6084 18.6094 19.6084C18.1952 19.6084 17.8594 19.2726 17.8594 18.8584L17.8594 12.8584L11.8594 12.8584C11.4452 12.8584 11.1094 12.5226 11.1094 12.1084C11.1094 11.6942 11.4452 11.3584 11.8594 11.3584L18.6094 11.3584ZM11.579 18.0781L18.079 11.5781L19.1397 12.6387L12.6397 19.1387L11.579 18.0781Z" fill="#B4B0A5"/>
</svg>
